<mxfile host="app.diagrams.net" modified="2024-02-26T10:19:26.341Z" agent="Mozilla/5.0 (Windows NT 10.0; Win64; x64) AppleWebKit/537.36 (KHTML, like Gecko) Chrome/121.0.0.0 Safari/537.36" etag="SyVjuKQCpJCst8-iEK10" version="23.1.6" type="device">
  <diagram id="C5RBs43oDa-KdzZeNtuy" name="Page-1">
    <mxGraphModel dx="1727" dy="942" grid="1" gridSize="10" guides="1" tooltips="1" connect="1" arrows="1" fold="1" page="1" pageScale="1" pageWidth="827" pageHeight="1169" math="0" shadow="0">
      <root>
        <mxCell id="WIyWlLk6GJQsqaUBKTNV-0" />
        <mxCell id="WIyWlLk6GJQsqaUBKTNV-1" parent="WIyWlLk6GJQsqaUBKTNV-0" />
        <mxCell id="5XcFdZAabmZUkj-gUnDr-23" style="edgeStyle=orthogonalEdgeStyle;rounded=0;orthogonalLoop=1;jettySize=auto;html=1;entryX=0.5;entryY=0;entryDx=0;entryDy=0;" edge="1" parent="WIyWlLk6GJQsqaUBKTNV-1" source="5XcFdZAabmZUkj-gUnDr-0" target="5XcFdZAabmZUkj-gUnDr-1">
          <mxGeometry relative="1" as="geometry" />
        </mxCell>
        <mxCell id="5XcFdZAabmZUkj-gUnDr-0" value="START" style="ellipse;whiteSpace=wrap;html=1;" vertex="1" parent="WIyWlLk6GJQsqaUBKTNV-1">
          <mxGeometry x="330" y="10" width="120" height="80" as="geometry" />
        </mxCell>
        <mxCell id="5XcFdZAabmZUkj-gUnDr-24" value="" style="edgeStyle=orthogonalEdgeStyle;rounded=0;orthogonalLoop=1;jettySize=auto;html=1;" edge="1" parent="WIyWlLk6GJQsqaUBKTNV-1" source="5XcFdZAabmZUkj-gUnDr-1" target="5XcFdZAabmZUkj-gUnDr-4">
          <mxGeometry relative="1" as="geometry" />
        </mxCell>
        <mxCell id="5XcFdZAabmZUkj-gUnDr-1" value="lst1 = []&lt;br&gt;lst2 = []&lt;br&gt;size_lst1 = int(input())" style="rounded=0;whiteSpace=wrap;html=1;" vertex="1" parent="WIyWlLk6GJQsqaUBKTNV-1">
          <mxGeometry x="310" y="120" width="160" height="60" as="geometry" />
        </mxCell>
        <mxCell id="5XcFdZAabmZUkj-gUnDr-14" style="edgeStyle=orthogonalEdgeStyle;rounded=0;orthogonalLoop=1;jettySize=auto;html=1;" edge="1" parent="WIyWlLk6GJQsqaUBKTNV-1" source="5XcFdZAabmZUkj-gUnDr-2" target="5XcFdZAabmZUkj-gUnDr-9">
          <mxGeometry relative="1" as="geometry" />
        </mxCell>
        <mxCell id="5XcFdZAabmZUkj-gUnDr-21" style="edgeStyle=orthogonalEdgeStyle;rounded=0;orthogonalLoop=1;jettySize=auto;html=1;entryX=1.017;entryY=0.406;entryDx=0;entryDy=0;entryPerimeter=0;" edge="1" parent="WIyWlLk6GJQsqaUBKTNV-1" source="5XcFdZAabmZUkj-gUnDr-2" target="5XcFdZAabmZUkj-gUnDr-19">
          <mxGeometry relative="1" as="geometry">
            <mxPoint x="490" y="700" as="targetPoint" />
            <Array as="points">
              <mxPoint x="520" y="440" />
              <mxPoint x="520" y="683" />
            </Array>
          </mxGeometry>
        </mxCell>
        <mxCell id="5XcFdZAabmZUkj-gUnDr-2" value="for s in lst1" style="rhombus;whiteSpace=wrap;html=1;" vertex="1" parent="WIyWlLk6GJQsqaUBKTNV-1">
          <mxGeometry x="305" y="410" width="170" height="60" as="geometry" />
        </mxCell>
        <mxCell id="5XcFdZAabmZUkj-gUnDr-8" style="edgeStyle=orthogonalEdgeStyle;rounded=0;orthogonalLoop=1;jettySize=auto;html=1;entryX=0.5;entryY=0;entryDx=0;entryDy=0;" edge="1" parent="WIyWlLk6GJQsqaUBKTNV-1" source="5XcFdZAabmZUkj-gUnDr-4" target="5XcFdZAabmZUkj-gUnDr-5">
          <mxGeometry relative="1" as="geometry" />
        </mxCell>
        <mxCell id="5XcFdZAabmZUkj-gUnDr-12" style="edgeStyle=orthogonalEdgeStyle;rounded=0;orthogonalLoop=1;jettySize=auto;html=1;entryX=0.5;entryY=0;entryDx=0;entryDy=0;" edge="1" parent="WIyWlLk6GJQsqaUBKTNV-1" source="5XcFdZAabmZUkj-gUnDr-4" target="5XcFdZAabmZUkj-gUnDr-2">
          <mxGeometry relative="1" as="geometry">
            <mxPoint x="480" y="440" as="targetPoint" />
            <Array as="points">
              <mxPoint x="520" y="240" />
              <mxPoint x="520" y="400" />
              <mxPoint x="390" y="400" />
            </Array>
          </mxGeometry>
        </mxCell>
        <mxCell id="5XcFdZAabmZUkj-gUnDr-4" value="for i in range(len(size_lst1)" style="rhombus;whiteSpace=wrap;html=1;" vertex="1" parent="WIyWlLk6GJQsqaUBKTNV-1">
          <mxGeometry x="290" y="200" width="200" height="80" as="geometry" />
        </mxCell>
        <mxCell id="5XcFdZAabmZUkj-gUnDr-6" style="edgeStyle=orthogonalEdgeStyle;rounded=0;orthogonalLoop=1;jettySize=auto;html=1;entryX=0;entryY=0.5;entryDx=0;entryDy=0;exitX=0;exitY=0.5;exitDx=0;exitDy=0;" edge="1" parent="WIyWlLk6GJQsqaUBKTNV-1" source="5XcFdZAabmZUkj-gUnDr-5" target="5XcFdZAabmZUkj-gUnDr-4">
          <mxGeometry relative="1" as="geometry">
            <mxPoint x="290" y="340" as="sourcePoint" />
          </mxGeometry>
        </mxCell>
        <mxCell id="5XcFdZAabmZUkj-gUnDr-5" value="lst1.append(input(&#39;Input string: &#39;))" style="rounded=0;whiteSpace=wrap;html=1;" vertex="1" parent="WIyWlLk6GJQsqaUBKTNV-1">
          <mxGeometry x="295" y="310" width="190" height="60" as="geometry" />
        </mxCell>
        <mxCell id="5XcFdZAabmZUkj-gUnDr-11" style="edgeStyle=orthogonalEdgeStyle;rounded=0;orthogonalLoop=1;jettySize=auto;html=1;entryX=0.5;entryY=0;entryDx=0;entryDy=0;" edge="1" parent="WIyWlLk6GJQsqaUBKTNV-1" source="5XcFdZAabmZUkj-gUnDr-9" target="5XcFdZAabmZUkj-gUnDr-10">
          <mxGeometry relative="1" as="geometry" />
        </mxCell>
        <mxCell id="5XcFdZAabmZUkj-gUnDr-15" style="edgeStyle=orthogonalEdgeStyle;rounded=0;orthogonalLoop=1;jettySize=auto;html=1;entryX=0;entryY=0.5;entryDx=0;entryDy=0;exitX=0;exitY=0.5;exitDx=0;exitDy=0;" edge="1" parent="WIyWlLk6GJQsqaUBKTNV-1" source="5XcFdZAabmZUkj-gUnDr-9" target="5XcFdZAabmZUkj-gUnDr-2">
          <mxGeometry relative="1" as="geometry">
            <mxPoint x="300" y="450" as="targetPoint" />
          </mxGeometry>
        </mxCell>
        <mxCell id="5XcFdZAabmZUkj-gUnDr-9" value="if len(s) &amp;lt;= 2" style="rhombus;whiteSpace=wrap;html=1;" vertex="1" parent="WIyWlLk6GJQsqaUBKTNV-1">
          <mxGeometry x="320" y="500" width="140" height="50" as="geometry" />
        </mxCell>
        <mxCell id="5XcFdZAabmZUkj-gUnDr-16" style="edgeStyle=orthogonalEdgeStyle;rounded=0;orthogonalLoop=1;jettySize=auto;html=1;" edge="1" parent="WIyWlLk6GJQsqaUBKTNV-1" source="5XcFdZAabmZUkj-gUnDr-10">
          <mxGeometry relative="1" as="geometry">
            <mxPoint x="300" y="440" as="targetPoint" />
          </mxGeometry>
        </mxCell>
        <mxCell id="5XcFdZAabmZUkj-gUnDr-10" value="lst2.append(s)" style="rounded=0;whiteSpace=wrap;html=1;" vertex="1" parent="WIyWlLk6GJQsqaUBKTNV-1">
          <mxGeometry x="330" y="580" width="120" height="30" as="geometry" />
        </mxCell>
        <mxCell id="5XcFdZAabmZUkj-gUnDr-17" value="YES" style="text;html=1;align=center;verticalAlign=middle;resizable=0;points=[];autosize=1;strokeColor=none;fillColor=none;" vertex="1" parent="WIyWlLk6GJQsqaUBKTNV-1">
          <mxGeometry x="380" y="548" width="50" height="30" as="geometry" />
        </mxCell>
        <mxCell id="5XcFdZAabmZUkj-gUnDr-18" value="NO" style="text;html=1;align=center;verticalAlign=middle;resizable=0;points=[];autosize=1;strokeColor=none;fillColor=none;" vertex="1" parent="WIyWlLk6GJQsqaUBKTNV-1">
          <mxGeometry x="250" y="468" width="40" height="30" as="geometry" />
        </mxCell>
        <mxCell id="5XcFdZAabmZUkj-gUnDr-22" style="edgeStyle=orthogonalEdgeStyle;rounded=0;orthogonalLoop=1;jettySize=auto;html=1;entryX=0.5;entryY=0;entryDx=0;entryDy=0;exitX=0.501;exitY=0.882;exitDx=0;exitDy=0;exitPerimeter=0;" edge="1" parent="WIyWlLk6GJQsqaUBKTNV-1" source="5XcFdZAabmZUkj-gUnDr-19" target="5XcFdZAabmZUkj-gUnDr-20">
          <mxGeometry relative="1" as="geometry" />
        </mxCell>
        <mxCell id="5XcFdZAabmZUkj-gUnDr-19" value="print(lst1)&lt;br&gt;print(lst2)" style="shape=document;whiteSpace=wrap;html=1;boundedLbl=1;" vertex="1" parent="WIyWlLk6GJQsqaUBKTNV-1">
          <mxGeometry x="330" y="650" width="120" height="80" as="geometry" />
        </mxCell>
        <mxCell id="5XcFdZAabmZUkj-gUnDr-20" value="END" style="ellipse;whiteSpace=wrap;html=1;" vertex="1" parent="WIyWlLk6GJQsqaUBKTNV-1">
          <mxGeometry x="330" y="760" width="120" height="80" as="geometry" />
        </mxCell>
      </root>
    </mxGraphModel>
  </diagram>
</mxfile>
